<?xml version="1.0" encoding="iso-8859-1"?>
<!-- Uploaded to: SVG Repo, www.svgrepo.com, Generator: SVG Repo Mixer Tools -->
<svg fill="#000000" height="800px" width="800px" version="1.1" id="Layer_1" xmlns="http://www.w3.org/2000/svg" xmlns:xlink="http://www.w3.org/1999/xlink" 
	 viewBox="0 0 512.008 512.008" xml:space="preserve">
<g>
	<g>
		<g>
			<path d="M332.541,280.644c-4.267-10.965-16.619-16.384-27.627-12.16l-3.243,1.259c-12.544-22.869-30.997-41.984-53.163-55.595
				l2.731-6.123c4.757-10.773-0.064-23.381-10.837-28.16c-10.795-4.779-23.381,0.107-28.16,10.837l-2.923,6.549
				c-12.352-3.307-25.259-5.248-38.656-5.248c-13.227,0-26.027,1.899-38.251,5.163l-2.155-5.547
				c-4.267-10.965-16.661-16.341-27.627-12.16c-10.987,4.267-16.427,16.64-12.16,27.627l2.667,6.869
				c-21.077,12.885-38.699,30.784-51.221,52.117l-11.904-5.291c-10.731-4.757-23.36,0.064-28.181,10.816
				c-4.757,10.773,0.064,23.381,10.837,28.181l13.163,5.845c-2.816,11.477-4.501,23.381-4.501,35.712
				c0,12.309,1.664,24.213,4.501,35.669l-12.224,4.757c-10.965,4.267-16.405,16.64-12.16,27.605
				c3.285,8.448,11.349,13.611,19.883,13.611c2.603,0,5.205-0.448,7.744-1.429l12.821-4.992
				c11.52,19.648,27.285,36.48,46.187,49.088l-6.08,18.325c-3.712,11.157,2.368,23.232,13.547,26.944
				c2.219,0.725,4.48,1.088,6.699,1.088c8.939,0,17.28-5.675,20.267-14.635l4.395-13.269c13.845,4.245,28.544,6.571,43.755,6.571
				c9.92,0,19.584-1.024,28.949-2.859l4.117,10.581c3.307,8.448,11.371,13.611,19.904,13.611c2.581,0,5.184-0.448,7.723-1.429
				c10.987-4.288,16.427-16.661,12.181-27.627l-3.669-9.408c21.909-11.499,40.64-28.224,54.464-48.576l9.664,4.288
				c2.795,1.259,5.739,1.835,8.64,1.835c8.192,0,15.979-4.736,19.52-12.672c4.757-10.773-0.064-23.36-10.837-28.16l-8.341-3.712
				c4.544-14.272,7.019-29.44,7.019-45.205c0-10.837-1.216-21.397-3.413-31.573l3.797-1.493
				C331.368,304.004,336.808,291.652,332.541,280.644z"/>
			<path d="M490.675,128.004h-23.488c-2.773-13.589-8.192-26.219-15.616-37.397l16.683-16.683c8.341-8.341,8.341-21.845,0-30.165
				c-8.32-8.341-21.824-8.341-30.165,0l-16.683,16.683c-11.179-7.424-23.808-12.843-37.397-15.616V21.337
				c0-11.797-9.536-21.333-21.333-21.333s-21.333,9.536-21.333,21.333v23.488c-13.589,2.773-26.219,8.192-37.397,15.616
				l-16.683-16.683c-8.341-8.341-21.845-8.341-30.165,0c-8.341,8.32-8.341,21.824,0,30.165l16.683,16.683
				c-7.424,11.179-12.843,23.808-15.616,37.397h-23.488c-11.797,0-21.333,9.536-21.333,21.333c0,11.797,9.536,21.333,21.333,21.333
				h23.488c8.512,41.728,41.451,74.667,83.179,83.179v23.488c0,11.797,9.536,21.333,21.333,21.333s21.333-9.536,21.333-21.333
				v-23.488c13.589-2.773,26.219-8.192,37.397-15.616l16.683,16.683c4.16,4.181,9.621,6.251,15.083,6.251
				c5.461,0,10.923-2.069,15.083-6.251c8.341-8.32,8.341-21.824,0-30.165l-16.683-16.683c7.424-11.179,12.843-23.808,15.616-37.397
				h23.488c11.797,0,21.333-9.536,21.333-21.333C512.008,137.54,502.472,128.004,490.675,128.004z M362.675,170.671
				c-11.776,0-21.333-9.557-21.333-21.333s9.557-21.333,21.333-21.333s21.333,9.557,21.333,21.333S374.451,170.671,362.675,170.671z
				"/>
		</g>
	</g>
</g>
</svg>